# xmcd
#
# Track frame offsets: 
#        150
#        15105
#        42110
#        55560
#        82180
#        95470
#        119020
#        138560
#        158890
#        178335
#        213320
#        226980
#        249245
#        263875
#        277700
#        290080
#        310160
#
# Disc length: 4345 seconds
#
# Revision: 2
# Processed by: cddbd v1.5.2PL0 Copyright (c) Steve Scherf et al.
# Submitted via: ExactAudioCopy v0.95a5
#
DISCID=e810f711
DTITLE=Lightnin' Hopkins - The Texas Bluesman
DYEAR=1990
DGENRE=Blues
TTITLE0=Mojo Hand
TTITLE1=Cotton
TTITLE2=Little Wail
TTITLE3=Hurricane Betsy
TTITLE4=Take Me Back, Baby
TTITLE5=Really Nothin' But The Blues
TTITLE6=Guitar Lightnin'
TTITLE7=Woke Up This Morning
TTITLE8=Shake Yourself
TTITLE9=California Showers
TTITLE10=Goin' Out
TTITLE11=Tom Moore Blues
TTITLE12=I Would If I Could
TTITLE13=At Home Blues
TTITLE14=Watch My Fingers
TTITLE15=Bud Russell Blues
TTITLE16=Cut Me Out Baby
EXTD=
EXTT0=
EXTT1=
EXTT2=
EXTT3=
EXTT4=
EXTT5=
EXTT6=
EXTT7=
EXTT8=
EXTT9=
EXTT10=
EXTT11=
EXTT12=
EXTT13=
EXTT14=
EXTT15=
EXTT16=
PLAYORDER=
